<?xml version="1.0" encoding="utf-8"?>
<!-- Generator: Adobe Illustrator 16.0.0, SVG Export Plug-In . SVG Version: 6.00 Build 0)  -->
<!DOCTYPE svg PUBLIC "-//W3C//DTD SVG 1.1//EN" "http://www.w3.org/Graphics/SVG/1.1/DTD/svg11.dtd">
<svg version="1.1" xmlns="http://www.w3.org/2000/svg" xmlns:xlink="http://www.w3.org/1999/xlink" x="0px" y="0px"
	 width="19.261px" height="29px" viewBox="0 0 19.261 29" enable-background="new 0 0 19.261 29" xml:space="preserve">
<g id="Layer_1">
	<image display="none" overflow="visible" width="20" height="29" xlink:href="raw.gif"  transform="matrix(1 0 0 1 -0.4375 0)">
	</image>
	<path fill="#B44F46" d="M6.875,6.125C6.875,6.125,0,7.812,0,15.5s5,7,0.812,13.5c0,0,4.899-3.285,5.375-3.438
		c2.344-0.75,12.688-0.375,12.688-10.438s-7.438-5.688-8.312-6.812S9.062,6.125,6.875,6.125z"/>
	<path fill="#50915E" d="M9.802,2c0,0,1.084,0.958,1.084,4.792S15.261,2,19.261,2c0,0-0.542-2-2.417-2s-4.208,4.833-4.208,4.833
		S12.594,2,9.802,2z"/>
	<text transform="matrix(1 0 0 1 5.2188 21.25)" fill="#FFFFFF" font-family="'Futura-Medium'" font-size="14">R</text>
</g>
<g id="Layer_2">
</g>
</svg>
