<?xml version="1.0"?>
<!--Icons from directory ""-->
<svg xmlns="http://www.w3.org/2000/svg" width="25" height="200" viewBox="0 0 25 200"><svg xmlns:xlink="http://www.w3.org/1999/xlink" id="fb-green" style="enable-background:new 0 0 90 90" xml:space="preserve" height="25" viewBox="0 0 90 90" width="25" version="1.1" y="0" x="0px">	<path id="fb-green-Facebook__x28_alt_x29_" d="m90 15.001c0-7.882-7.116-15.001-15-15.001h-60c-7.884 0-15 7.119-15 15.001v59.998c0 7.882 7.116 15.001 15.001 15.001h29.999v-34h-11v-15h11v-5.844c0-10.079 7.568-19.156 16.875-19.156h12.125v15h-12.125c-1.327 0-2.875 1.611-2.875 4.024v5.976h15v15h-15v34h16c7.884 0 15-7.119 15-15.001v-59.998z" fill="#00a800"/></svg><svg xmlns:xlink="http://www.w3.org/1999/xlink" id="fb" style="enable-background:new 0 0 90 90" xml:space="preserve" height="25" viewBox="0 0 90 90" width="25" version="1.1" y="25" x="0px">	<path id="fb-Facebook__x28_alt_x29_" d="m90 15.001c0-7.882-7.116-15.001-15-15.001h-60c-7.884 0-15 7.119-15 15.001v59.998c0 7.882 7.116 15.001 15.001 15.001h29.999v-34h-11v-15h11v-5.844c0-10.079 7.568-19.156 16.875-19.156h12.125v15h-12.125c-1.327 0-2.875 1.611-2.875 4.024v5.976h15v15h-15v34h16c7.884 0 15-7.119 15-15.001v-59.998z" fill="#663118"/></svg><svg xmlns:xlink="http://www.w3.org/1999/xlink" id="inst-green" style="enable-background:new 0 0 290 290" xml:space="preserve" height="25" viewBox="0 0 290 290" width="25" version="1.1" y="50" x="0px"><g fill="#00a800">	<path d="m250.63 0h-211.26c-21.707 0-39.37 17.663-39.37 39.374v211.25c0 21.72 17.663 39.38 39.374 39.38h211.25c21.72 0 39.38-17.66 39.38-39.37v-211.26c0-21.707-17.66-39.37-39.37-39.37zm-105.63 215.85c-35.762 0-64.856-29.094-64.856-64.856 0-35.761 29.095-64.856 64.856-64.856s64.856 29.095 64.856 64.856c0 35.76-29.1 64.86-64.86 64.86zm120.45-112.73h-58.6c-14.79-17.713-37.03-28.998-61.85-28.998s-47.058 11.286-61.85 28.993h-58.597v-56.316c0-14.313 11.645-25.957 25.958-25.957h188.98c14.313 0 25.958 11.644 25.958 25.957v56.316z"/>	<path d="m145 109.3c-22.989 0-41.694 18.704-41.694 41.693 0 22.99 18.704 41.693 41.694 41.693s41.694-18.703 41.694-41.693c0-22.99-18.7-41.69-41.69-41.69z"/>	<path d="m233.49 37.491h-25.093c-5.735 0-10.401 4.667-10.401 10.402v25.093c0 5.735 4.665 10.401 10.401 10.401h25.093c5.735 0 10.401-4.665 10.401-10.401v-25.093c0-5.736-4.67-10.402-10.4-10.402z"/></g></svg><svg xmlns:xlink="http://www.w3.org/1999/xlink" id="inst" style="enable-background:new 0 0 290 290" xml:space="preserve" height="25" viewBox="0 0 290 290" width="25" version="1.1" y="75" x="0px"><g fill="#663118">	<path d="m250.63 0h-211.26c-21.707 0-39.37 17.663-39.37 39.374v211.25c0 21.72 17.663 39.38 39.374 39.38h211.25c21.72 0 39.38-17.66 39.38-39.37v-211.26c0-21.707-17.66-39.37-39.37-39.37zm-105.63 215.85c-35.762 0-64.856-29.094-64.856-64.856 0-35.761 29.095-64.856 64.856-64.856s64.856 29.095 64.856 64.856c0 35.76-29.1 64.86-64.86 64.86zm120.45-112.73h-58.6c-14.79-17.713-37.03-28.998-61.85-28.998s-47.058 11.286-61.85 28.993h-58.597v-56.316c0-14.313 11.645-25.957 25.958-25.957h188.98c14.313 0 25.958 11.644 25.958 25.957v56.316z"/>	<path d="m145 109.3c-22.989 0-41.694 18.704-41.694 41.693 0 22.99 18.704 41.693 41.694 41.693s41.694-18.703 41.694-41.693c0-22.99-18.7-41.69-41.69-41.69z"/>	<path d="m233.49 37.491h-25.093c-5.735 0-10.401 4.667-10.401 10.402v25.093c0 5.735 4.665 10.401 10.401 10.401h25.093c5.735 0 10.401-4.665 10.401-10.401v-25.093c0-5.736-4.67-10.402-10.4-10.402z"/></g></svg><svg xmlns:xlink="http://www.w3.org/1999/xlink" id="tr-green" style="enable-background:new 0 0 94 94" xml:space="preserve" height="25" viewBox="0 0 94 94" width="25" version="1.1" y="100" x="0px"><g fill="#00a800">	<path d="m53.262 36.059c3.471-3.184 7.605-4.855 12.297-5.209-5.566-2.475-11.438-3.525-17.48-3.643-6.865-0.135-13.546 0.877-19.926 3.553 4.771 0.291 8.96 1.953 12.5 5.174 3.531 3.213 5.603 7.221 6.354 11.936 0.772-4.661 2.787-8.632 6.255-11.811z"/>	<path d="m66.6 44.002c-3.519 0-6.382 2.832-6.396 6.322-0.013 3.477 2.864 6.369 6.351 6.379 3.489 0.012 6.357-2.857 6.355-6.352-0.002-3.501-2.834-6.349-6.31-6.349zm0 9.566c-1.805 0-3.254-1.424-3.25-3.189 0.004-1.834 1.412-3.25 3.229-3.252 1.781 0 3.238 1.459 3.223 3.229-0.019 1.773-1.452 3.212-3.202 3.212z"/>	<path d="m27.372 34.855c-8.443-0.074-15.805 6.975-15.657 15.95 0.137 8.372 7.037 15.467 15.832 15.393 8.602-0.072 15.517-7.098 15.533-15.604 0.013-8.737-6.984-15.739-15.708-15.739zm0.254 25.213c-5.659 0.258-10.224-4.252-10.212-9.729 0.011-5.549 4.582-9.793 9.752-9.699 5.369-0.006 9.727 4.33 9.711 9.695-0.014 5.433-4.294 9.507-9.251 9.733z"/>	<path d="m27.08 44.002c-3.432 0.008-6.307 2.902-6.298 6.346 0.009 3.484 2.88 6.348 6.374 6.357 3.473 0.008 6.347-2.883 6.34-6.377-0.011-3.523-2.861-6.332-6.416-6.326zm0.078 9.6c-1.84 0.002-3.263-1.42-3.261-3.271 0-1.817 1.419-3.229 3.252-3.229 1.808-0.002 3.259 1.438 3.267 3.241 0.007 1.788-1.459 3.253-3.258 3.259z"/>	<path d="m66.27 34.918c-8.572 0.176-15.28 7.082-15.357 15.627 0 8.68 7.042 15.771 15.69 15.738 8.684-0.031 15.693-6.922 15.688-15.699-0.006-9.045-7.342-15.844-16.021-15.666zm0.707 25.152c-5.638 0.217-10.146-4.275-10.145-9.721 0.002-5.509 4.545-9.802 9.74-9.709 5.373-0.01 9.725 4.318 9.725 9.684 0 5.389-4.277 9.553-9.32 9.746z"/>	<path d="m89 0h-84c-2.762 0-5 2.238-5 5v84c0 2.762 2.238 5 5 5h84c2.762 0 5-2.238 5-5v-84c0-2.762-2.238-5-5-5zm-3.307 55.33c-1.26 5.127-4.197 9.123-8.664 11.953-3.19 2.025-6.717 2.988-10.481 3.008-1.583 0.01-3.157-0.203-4.702-0.602-3.768-0.978-6.996-2.855-9.658-5.699-0.353-0.371-0.682-0.762-1.056-1.186-1.407 2.098-2.792 4.159-4.21 6.276-1.412-2.11-2.779-4.154-4.142-6.188-0.093 0.049-0.12 0.056-0.139 0.072-0.03 0.025-0.059 0.057-0.082 0.086-3.219 3.801-7.267 6.131-12.2 6.91-2.744 0.436-5.461 0.279-8.125-0.455-3.778-1.037-6.988-3.031-9.581-5.973-2.534-2.875-4.11-6.211-4.701-10.006-0.678-3.543 0.147-6.955 0.354-7.785 0.597-2.408 1.636-4.619 3.063-6.654 0.101-0.145 0.135-0.398 0.087-0.57-0.582-2.137-1.584-4.078-2.76-5.939-0.298-0.473-0.656-0.91-0.986-1.363v-0.16c0.067 0.01 0.131 0.021 0.197 0.021 3.953 0.002 7.904 0.004 11.859-0.004 0.171 0 0.363-0.07 0.509-0.166 2.777-1.781 5.737-3.193 8.847-4.293 2.24-0.789 4.53-1.406 6.865-1.859 2.261-0.438 4.533-0.746 6.829-0.896 5.6-0.432 10.073 0.16 13.051 0.576 2.193 0.311 4.344 0.861 6.468 1.516 3.706 1.141 7.203 2.727 10.493 4.783 0.229 0.141 0.535 0.232 0.804 0.232 3.863 0.016 7.726 0.01 11.587 0.014 0.311 0 0.62 0.031 0.932 0.049 0 0.076 0.012 0.107-0.002 0.125-0.18 0.279-0.363 0.553-0.543 0.828-1.311 2.01-2.431 4.113-3.092 6.438-0.072 0.25-0.089 0.459 0.082 0.703 3.439 4.941 4.535 10.362 3.097 16.208z"/></g></svg><svg xmlns:xlink="http://www.w3.org/1999/xlink" id="tr" style="enable-background:new 0 0 94 94" xml:space="preserve" height="25" viewBox="0 0 94 94" width="25" version="1.1" y="125" x="0px"><g fill="#663118">	<path d="m53.262 36.059c3.471-3.184 7.605-4.855 12.297-5.209-5.566-2.475-11.438-3.525-17.48-3.643-6.865-0.135-13.546 0.877-19.926 3.553 4.771 0.291 8.96 1.953 12.5 5.174 3.531 3.213 5.603 7.221 6.354 11.936 0.772-4.661 2.787-8.632 6.255-11.811z"/>	<path d="m66.6 44.002c-3.519 0-6.382 2.832-6.396 6.322-0.013 3.477 2.864 6.369 6.351 6.379 3.489 0.012 6.357-2.857 6.355-6.352-0.002-3.501-2.834-6.349-6.31-6.349zm0 9.566c-1.805 0-3.254-1.424-3.25-3.189 0.004-1.834 1.412-3.25 3.229-3.252 1.781 0 3.238 1.459 3.223 3.229-0.019 1.773-1.452 3.212-3.202 3.212z"/>	<path d="m27.372 34.855c-8.443-0.074-15.805 6.975-15.657 15.95 0.137 8.372 7.037 15.467 15.832 15.393 8.602-0.072 15.517-7.098 15.533-15.604 0.013-8.737-6.984-15.739-15.708-15.739zm0.254 25.213c-5.659 0.258-10.224-4.252-10.212-9.729 0.011-5.549 4.582-9.793 9.752-9.699 5.369-0.006 9.727 4.33 9.711 9.695-0.014 5.433-4.294 9.507-9.251 9.733z"/>	<path d="m27.08 44.002c-3.432 0.008-6.307 2.902-6.298 6.346 0.009 3.484 2.88 6.348 6.374 6.357 3.473 0.008 6.347-2.883 6.34-6.377-0.011-3.523-2.861-6.332-6.416-6.326zm0.078 9.6c-1.84 0.002-3.263-1.42-3.261-3.271 0-1.817 1.419-3.229 3.252-3.229 1.808-0.002 3.259 1.438 3.267 3.241 0.007 1.788-1.459 3.253-3.258 3.259z"/>	<path d="m66.27 34.918c-8.572 0.176-15.28 7.082-15.357 15.627 0 8.68 7.042 15.771 15.69 15.738 8.684-0.031 15.693-6.922 15.688-15.699-0.006-9.045-7.342-15.844-16.021-15.666zm0.707 25.152c-5.638 0.217-10.146-4.275-10.145-9.721 0.002-5.509 4.545-9.802 9.74-9.709 5.373-0.01 9.725 4.318 9.725 9.684 0 5.389-4.277 9.553-9.32 9.746z"/>	<path d="m89 0h-84c-2.762 0-5 2.238-5 5v84c0 2.762 2.238 5 5 5h84c2.762 0 5-2.238 5-5v-84c0-2.762-2.238-5-5-5zm-3.307 55.33c-1.26 5.127-4.197 9.123-8.664 11.953-3.19 2.025-6.717 2.988-10.481 3.008-1.583 0.01-3.157-0.203-4.702-0.602-3.768-0.978-6.996-2.855-9.658-5.699-0.353-0.371-0.682-0.762-1.056-1.186-1.407 2.098-2.792 4.159-4.21 6.276-1.412-2.11-2.779-4.154-4.142-6.188-0.093 0.049-0.12 0.056-0.139 0.072-0.03 0.025-0.059 0.057-0.082 0.086-3.219 3.801-7.267 6.131-12.2 6.91-2.744 0.436-5.461 0.279-8.125-0.455-3.778-1.037-6.988-3.031-9.581-5.973-2.534-2.875-4.11-6.211-4.701-10.006-0.678-3.543 0.147-6.955 0.354-7.785 0.597-2.408 1.636-4.619 3.063-6.654 0.101-0.145 0.135-0.398 0.087-0.57-0.582-2.137-1.584-4.078-2.76-5.939-0.298-0.473-0.656-0.91-0.986-1.363v-0.16c0.067 0.01 0.131 0.021 0.197 0.021 3.953 0.002 7.904 0.004 11.859-0.004 0.171 0 0.363-0.07 0.509-0.166 2.777-1.781 5.737-3.193 8.847-4.293 2.24-0.789 4.53-1.406 6.865-1.859 2.261-0.438 4.533-0.746 6.829-0.896 5.6-0.432 10.073 0.16 13.051 0.576 2.193 0.311 4.344 0.861 6.468 1.516 3.706 1.141 7.203 2.727 10.493 4.783 0.229 0.141 0.535 0.232 0.804 0.232 3.863 0.016 7.726 0.01 11.587 0.014 0.311 0 0.62 0.031 0.932 0.049 0 0.076 0.012 0.107-0.002 0.125-0.18 0.279-0.363 0.553-0.543 0.828-1.311 2.01-2.431 4.113-3.092 6.438-0.072 0.25-0.089 0.459 0.082 0.703 3.439 4.941 4.535 10.362 3.097 16.208z"/></g></svg><svg xmlns:xlink="http://www.w3.org/1999/xlink" id="vk-green" style="enable-background:new 0 0 96.496 96.496" xml:space="preserve" height="25" viewBox="0 0 96.496 96.496" width="25" version="1.1" y="150" x="0px">	<path d="m92.499 65.178c-2.873-3.446-6.254-6.387-9.453-9.51-2.886-2.815-3.068-4.448-0.748-7.697 2.532-3.546 5.255-6.956 7.81-10.486 2.385-3.299 4.823-6.589 6.078-10.539 0.796-2.513 0.092-3.623-2.485-4.063-0.444-0.077-0.903-0.081-1.355-0.081l-15.289-0.018c-1.883-0.028-2.924 0.793-3.59 2.462-0.899 2.256-1.826 4.51-2.897 6.687-2.43 4.936-5.144 9.707-8.949 13.747-0.839 0.891-1.767 2.017-3.169 1.553-1.754-0.64-2.271-3.53-2.242-4.507l-0.015-17.647c-0.34-2.521-0.899-3.645-3.402-4.135l-15.882 0.003c-2.12 0-3.183 0.819-4.315 2.145-0.653 0.766-0.85 1.263 0.492 1.517 2.636 0.5 4.121 2.206 4.515 4.849 0.632 4.223 0.588 8.463 0.224 12.703-0.107 1.238-0.32 2.473-0.811 3.629-0.768 1.817-2.008 2.187-3.637 1.069-1.475-1.012-2.511-2.44-3.525-3.874-3.809-5.382-6.848-11.186-9.326-17.285-0.716-1.762-1.951-2.83-3.818-2.859-4.587-0.073-9.175-0.085-13.762 0.004-2.76 0.052-3.583 1.392-2.459 3.894 4.996 11.113 10.557 21.917 17.816 31.759 3.727 5.051 8.006 9.51 13.534 12.67 6.265 3.582 13.009 4.66 20.112 4.328 3.326-0.156 4.325-1.021 4.479-4.336 0.104-2.268 0.361-4.523 1.48-6.561 1.098-2 2.761-2.381 4.678-1.137 0.959 0.623 1.767 1.416 2.53 2.252 1.872 2.048 3.677 4.158 5.62 6.137 2.437 2.48 5.324 3.945 8.954 3.646l14.052 0.003c2.264-0.148 3.438-2.924 2.138-5.451-0.913-1.77-2.111-3.346-3.383-4.871z" fill="#00a800"/></svg><svg xmlns:xlink="http://www.w3.org/1999/xlink" id="vk" style="enable-background:new 0 0 96.496 96.496" xml:space="preserve" height="25" viewBox="0 0 96.496 96.496" width="25" version="1.1" y="175" x="0px">	<path d="m92.499 65.178c-2.873-3.446-6.254-6.387-9.453-9.51-2.886-2.815-3.068-4.448-0.748-7.697 2.532-3.546 5.255-6.956 7.81-10.486 2.385-3.299 4.823-6.589 6.078-10.539 0.796-2.513 0.092-3.623-2.485-4.063-0.444-0.077-0.903-0.081-1.355-0.081l-15.289-0.018c-1.883-0.028-2.924 0.793-3.59 2.462-0.899 2.256-1.826 4.51-2.897 6.687-2.43 4.936-5.144 9.707-8.949 13.747-0.839 0.891-1.767 2.017-3.169 1.553-1.754-0.64-2.271-3.53-2.242-4.507l-0.015-17.647c-0.34-2.521-0.899-3.645-3.402-4.135l-15.882 0.003c-2.12 0-3.183 0.819-4.315 2.145-0.653 0.766-0.85 1.263 0.492 1.517 2.636 0.5 4.121 2.206 4.515 4.849 0.632 4.223 0.588 8.463 0.224 12.703-0.107 1.238-0.32 2.473-0.811 3.629-0.768 1.817-2.008 2.187-3.637 1.069-1.475-1.012-2.511-2.44-3.525-3.874-3.809-5.382-6.848-11.186-9.326-17.285-0.716-1.762-1.951-2.83-3.818-2.859-4.587-0.073-9.175-0.085-13.762 0.004-2.76 0.052-3.583 1.392-2.459 3.894 4.996 11.113 10.557 21.917 17.816 31.759 3.727 5.051 8.006 9.51 13.534 12.67 6.265 3.582 13.009 4.66 20.112 4.328 3.326-0.156 4.325-1.021 4.479-4.336 0.104-2.268 0.361-4.523 1.48-6.561 1.098-2 2.761-2.381 4.678-1.137 0.959 0.623 1.767 1.416 2.53 2.252 1.872 2.048 3.677 4.158 5.62 6.137 2.437 2.48 5.324 3.945 8.954 3.646l14.052 0.003c2.264-0.148 3.438-2.924 2.138-5.451-0.913-1.77-2.111-3.346-3.383-4.871z" fill="#663118"/></svg></svg>
