<?xml version="1.0" encoding="utf-8"?>
<!-- Generator: Adobe Illustrator 16.0.0, SVG Export Plug-In . SVG Version: 6.00 Build 0)  -->
<!DOCTYPE svg PUBLIC "-//W3C//DTD SVG 1.1//EN" "http://www.w3.org/Graphics/SVG/1.1/DTD/svg11.dtd">
<svg version="1.1" id="Layer_1" xmlns="http://www.w3.org/2000/svg" xmlns:xlink="http://www.w3.org/1999/xlink" x="0px" y="0px"
	 width="20px" height="25.152px" viewBox="0 0 20 25.152" enable-background="new 0 0 20 25.152" xml:space="preserve">
<path fill="#50915E" d="M13.375,5.777c0,0-0.25-5.25,6.625-5.25C20,0.527,17.625,5.652,13.375,5.777z"/>
<image display="none" overflow="visible" width="20" height="26" xlink:href="vegan.gif"  transform="matrix(1 0 0 1 0 -1.0002)">
</image>
<path fill="#50915E" d="M7.5,5.777c0,0-7.5,0.955-7.5,8.875c0,5.111,5.375,10.5,9.125,10.5c3.5,0,10.875-2.742,10.854-10.323
	c0,0-0.521-6.927-5.854-6.927c-0.784,0-2.5,0.375-3.125-0.25S9.508,5.542,7.5,5.777z"/>
<path fill="#62443F" d="M11.5,5.777c0,0,0.625-3.125-1.5-4.875c0,0,0.922-1.75,1.586-0.375L12.2,6.031l0.383,1.294
	c0,0-1.125,0.542-1.5-0.5"/>
<path fill="#FFFFFF" d="M10.506,11.328l2.461,5.342l2.451-5.342h2.471l-4.94,10.166L8.045,11.328H10.506z"/>
</svg>
