<?xml version="1.0" encoding="utf-8"?>
<!-- Generator: Adobe Illustrator 16.0.0, SVG Export Plug-In . SVG Version: 6.00 Build 0)  -->
<!DOCTYPE svg PUBLIC "-//W3C//DTD SVG 1.1//EN" "http://www.w3.org/Graphics/SVG/1.1/DTD/svg11.dtd">
<svg version="1.1" id="Layer_2" xmlns="http://www.w3.org/2000/svg" xmlns:xlink="http://www.w3.org/1999/xlink" x="0px" y="0px"
	 width="20px" height="25.152px" viewBox="0 0 20 25.152" enable-background="new 0 0 20 25.152" xml:space="preserve">
<g>
	<g>
		<g>
			<g>
				<path fill="#50915E" d="M13.375,5.777c0,0-0.25-5.25,6.625-5.25C20,0.527,17.625,5.652,13.375,5.777z"/>
			</g>
		</g>
	</g>
</g>
<g>
	<g>
		<g>
			<g>
				<path fill="#50915E" d="M7.5,5.777c0,0-7.5-0.5-7.5,8.875s9.125,10.5,9.125,10.5S20,24.277,20,15.027s-5.875-7.125-5.875-7.125
					s-2.5,0.375-3.125-0.25S9.508,5.542,7.5,5.777z"/>
			</g>
		</g>
	</g>
</g>
<g>
	<g>
		<g>
			<g>
				<path fill="#62443F" d="M11.5,5.777c0,0,0.625-3.125-1.5-4.875c0,0,0.922-1.75,1.586-0.375s0.539,5.25,0.539,5.25l0.01,0.708
					c0,0-0.385,1.042-0.76,0"/>
			</g>
		</g>
	</g>
</g>
<text transform="matrix(1 0 0 1 7.9375 20.8394)" fill="#FFFFFF" font-family="'Futura-Medium'" font-size="20">v</text>
</svg>
