<svg xmlns="http://www.w3.org/2000/svg" width="20" height="20" viewBox="0 0 20 20"><circle fill="#966946" cx="10" cy="10" r="10"/><path fill="#fff" d="M9.5 17.88c-4.09 0-3.94-3.34-3.94-3.34v-5.58s2.25-2.13 2.25-4.58c0-2.88 1.69-2.34 1.69-2.34s1.689-.54 1.689 2.34c0 2.45 2.25 1.83 2.25 4.58v5.58s.151 3.34-3.939 3.34z"/><path fill="#fff" d="M15.924 6.303c.221 0 .41.081.571.242.161.16.241.353.241.577 0 .229-.08.423-.241.584s-.355.241-.584.241-.423-.08-.584-.241c-.157-.156-.235-.354-.235-.591 0-.22.081-.41.242-.57.173-.161.369-.242.59-.242zm-.571 2.793h1.219v6.57h-1.219v-6.57z"/><path fill="#C4803B" d="M7.407 7.379h.956l.73 3.076c.089.385.171.77.244 1.154.074.387.141.791.202 1.214l.016-.13.011-.065.156-.864.14-.82.124-.542.649-3.022h.967l.764 7.539h-1.069l-.188-2.559-.019-.337-.008-.234-.048-1.011-.028-.928-.003-.042-.008-.085-.026.151-.078.469-.062.337-.139.688-.055.259-.698 3.291h-.752l-.655-2.842c-.089-.375-.169-.754-.239-1.141-.07-.385-.134-.79-.191-1.213l-.322 5.195h-1.053l.682-7.538z"/></svg>