<?xml version="1.0" encoding="iso-8859-1"?>
<!-- Generator: Adobe Illustrator 18.0.0, SVG Export Plug-In . SVG Version: 6.00 Build 0)  -->
<!DOCTYPE svg PUBLIC "-//W3C//DTD SVG 1.1//EN" "http://www.w3.org/Graphics/SVG/1.1/DTD/svg11.dtd">
<svg version="1.1" id="Capa_1" xmlns="http://www.w3.org/2000/svg" xmlns:xlink="http://www.w3.org/1999/xlink" x="0px" y="0px"  width="30px" height="30px"
	 viewBox="0 0 375.385 375.385" style="enable-background:new 0 0 375.385 375.385;" xml:space="preserve">
	<g>
		<path fill="#e8c414" d="M187.688,0C106.2,0,39.9,66.297,39.9,147.797c0,79.822,137.41,217.279,143.269,223.093l4.52,4.495l4.532-4.495
			c5.848-5.814,143.265-143.271,143.265-223.093C335.485,66.297,269.188,0,187.688,0z M187.688,192.808
			c-35.427,0-64.245-28.829-64.245-64.242c0-35.442,28.818-64.276,64.245-64.276c35.438,0,64.26,28.834,64.26,64.276
			C251.948,163.979,223.126,192.808,187.688,192.808z"/>
	</g>
</svg>
