<svg xmlns="http://www.w3.org/2000/svg" width="19.262" height="29" viewBox="0 0 19.262 29"><path fill="#B44F46" d="M6.875 6.125s-6.875 1.687-6.875 9.375 5 7 .812 13.5c0 0 4.898-3.285 5.375-3.438 2.344-.75 12.688-.375 12.688-10.438s-7.438-5.688-8.312-6.812-1.501-2.187-3.688-2.187z"/><path fill="#50915E" d="M9.802 2s1.085.958 1.085 4.792 4.374-4.792 8.374-4.792c0 0-.542-2-2.417-2l-4.208 4.833s-.042-2.833-2.834-2.833z"/><path fill="#fff" d="M10.058 16.752l3.269 4.498h-1.948l-3.016-4.32h-.287v4.32h-1.593v-10.555h1.866c1.396 0 2.402.262 3.021.786.684.583 1.024 1.354 1.024 2.311 0 .747-.215 1.39-.643 1.928s-.991.882-1.693 1.032zm-1.982-1.21h.506c1.508 0 2.263-.576 2.263-1.729 0-1.08-.734-1.62-2.201-1.62h-.568v3.349z"/></svg>